<?xml version="1.0" encoding="UTF-8" standalone="no"?>
<svg
   xmlns:dc="http://purl.org/dc/elements/1.1/"
   xmlns:cc="http://creativecommons.org/ns#"
   xmlns:rdf="http://www.w3.org/1999/02/22-rdf-syntax-ns#"
   xmlns:svg="http://www.w3.org/2000/svg"
   xmlns="http://www.w3.org/2000/svg"
   viewBox="0 0 1440 1440"
   height="1440"
   width="1440"
   xml:space="preserve"
   id="svg2"
   version="1.1"><metadata
     id="metadata8"><rdf:RDF><cc:Work
         rdf:about=""><dc:format>image/svg+xml</dc:format><dc:type
           rdf:resource="http://purl.org/dc/dcmitype/StillImage" /></cc:Work></rdf:RDF></metadata><defs
     id="defs6"><clipPath
       id="clipPath22"
       clipPathUnits="userSpaceOnUse"><path
         id="path20"
         d="M 0,1080 H 1080 V 0 H 0 Z" /></clipPath></defs><g
     transform="matrix(1.3333333,0,0,-1.3333333,0,1440)"
     id="g10"><g
       transform="translate(174.1209,572.1381)"
       id="g12"><path
         id="path14"
         style="fill:#f11420;fill-opacity:1;fill-rule:nonzero;stroke:none"
         d="M 0,0 -4.482,-18.297 H 7.065 L 2.636,0 Z M -13.446,-31.217 -4.535,4.904 H 7.118 l 8.964,-36.121 h -5.905 l -1.951,7.751 H -5.642 l -1.952,-7.751 z" /></g><g
       id="g16"><g
         clip-path="url(#clipPath22)"
         id="g18"><g
           transform="translate(194.6866,540.9212)"
           id="g24"><path
             id="path26"
             style="fill:#f11420;fill-opacity:1;fill-rule:nonzero;stroke:none"
             d="m 0,0 v 26.366 h 5.695 v -3.165 c 2.987,1.934 5.975,3.182 8.964,3.746 v -5.75 C 11.635,20.601 9.052,19.827 6.908,18.879 L 5.747,18.404 V 0 Z" /></g><g
           transform="translate(221.4215,552.6278)"
           id="g28"><path
             id="path30"
             style="fill:#f11420;fill-opacity:1;fill-rule:nonzero;stroke:none"
             d="m 0,0 c -2.426,-0.21 -3.639,-1.53 -3.639,-3.955 0,-2.426 1.071,-3.639 3.217,-3.639 1.757,0 3.619,0.282 5.588,0.844 l 0.951,0.317 V 0.579 Z M 11.812,6.538 V -5.483 c 0.035,-0.774 0.237,-1.345 0.606,-1.714 0.369,-0.37 0.939,-0.607 1.712,-0.712 l -0.157,-4.377 c -3.024,0 -5.361,0.649 -7.013,1.952 -2.812,-1.303 -5.642,-1.952 -8.49,-1.952 -5.238,0 -7.858,2.795 -7.858,8.383 0,2.673 0.714,4.607 2.136,5.802 1.425,1.193 3.613,1.914 6.566,2.161 l 6.803,0.579 v 1.899 c 0,1.406 -0.309,2.391 -0.924,2.953 -0.616,0.564 -1.521,0.845 -2.715,0.845 -2.251,0 -5.063,-0.142 -8.437,-0.423 l -1.687,-0.105 -0.212,4.06 c 3.831,0.913 7.357,1.372 10.573,1.372 3.217,0 5.536,-0.696 6.96,-2.083 1.423,-1.39 2.137,-3.596 2.137,-6.619" /></g><g
           transform="translate(250.104,545.4557)"
           id="g32"><path
             id="path34"
             style="fill:#f11420;fill-opacity:1;fill-rule:nonzero;stroke:none"
             d="m 0,0 c 2.812,0 4.684,0.661 5.617,1.979 0.931,1.317 1.398,3.558 1.398,6.723 0,3.164 -0.397,5.386 -1.188,6.67 -0.791,1.283 -2.082,1.925 -3.876,1.925 -1.687,0 -3.374,-0.265 -5.061,-0.792 L -3.953,16.241 V 0.212 C -2.021,0.07 -0.704,0 0,0 m 2.638,22.412 c 3.621,0 6.229,-1.012 7.831,-3.032 1.599,-2.023 2.398,-5.6 2.398,-10.731 0,-5.133 -0.949,-8.709 -2.847,-10.731 C 8.121,-4.103 4.781,-5.114 0,-5.114 c -1.652,0 -4.27,0.158 -7.856,0.474 l -1.792,0.158 v 37.281 h 5.695 V 20.83 c 2.425,1.054 4.622,1.582 6.591,1.582" /></g><g
           transform="translate(290.6038,540.9212)"
           id="g36"><path
             id="path38"
             style="fill:#f11420;fill-opacity:1;fill-rule:nonzero;stroke:none"
             d="M 0,0 V 15.609 H -15.608 V 0 h -5.854 v 36.121 h 5.854 V 20.723 H 0 V 36.121 H 5.907 V 0 Z" /></g><g
           transform="translate(311.8012,552.6278)"
           id="g40"><path
             id="path42"
             style="fill:#f11420;fill-opacity:1;fill-rule:nonzero;stroke:none"
             d="m 0,0 c -2.426,-0.21 -3.639,-1.53 -3.639,-3.955 0,-2.426 1.071,-3.639 3.217,-3.639 1.757,0 3.619,0.282 5.588,0.844 l 0.951,0.317 V 0.579 Z M 11.812,6.538 V -5.483 c 0.035,-0.774 0.237,-1.345 0.606,-1.714 0.369,-0.37 0.939,-0.607 1.712,-0.712 l -0.157,-4.377 c -3.024,0 -5.361,0.649 -7.013,1.952 -2.812,-1.303 -5.642,-1.952 -8.49,-1.952 -5.238,0 -7.858,2.795 -7.858,8.383 0,2.673 0.713,4.607 2.136,5.802 1.425,1.193 3.613,1.914 6.566,2.161 l 6.803,0.579 v 1.899 c 0,1.406 -0.309,2.391 -0.924,2.953 -0.616,0.564 -1.521,0.845 -2.715,0.845 -2.251,0 -5.063,-0.142 -8.437,-0.423 l -1.687,-0.105 -0.212,4.06 c 3.831,0.913 7.357,1.372 10.573,1.372 3.217,0 5.536,-0.696 6.96,-2.083 1.423,-1.39 2.137,-3.596 2.137,-6.619" /></g><g
           transform="translate(330.8373,540.9212)"
           id="g44"><path
             id="path46"
             style="fill:#f11420;fill-opacity:1;fill-rule:nonzero;stroke:none"
             d="m 0,0 v 26.366 h 5.695 v -3.165 c 2.987,1.934 5.975,3.182 8.964,3.746 v -5.75 C 11.635,20.601 9.052,19.827 6.908,18.879 L 5.747,18.404 V 0 Z" /></g><g
           transform="translate(364.478,546.4062)"
           id="g48"><path
             id="path50"
             style="fill:#f11420;fill-opacity:1;fill-rule:nonzero;stroke:none"
             d="m 0,0 0.896,0.369 v 15.608 c -2.109,0.352 -4.06,0.527 -5.852,0.527 -3.551,0 -5.326,-2.953 -5.326,-8.858 0,-3.236 0.412,-5.477 1.238,-6.723 0.826,-1.25 2.136,-1.873 3.93,-1.873 1.792,0 3.497,0.316 5.114,0.95 M 6.645,31.849 V -5.485 H 0.95 v 1.372 c -2.567,-1.302 -4.923,-1.951 -7.067,-1.951 -3.446,0 -5.967,1.036 -7.566,3.11 -1.6,2.074 -2.399,5.555 -2.399,10.441 0,4.886 0.887,8.437 2.663,10.651 1.775,2.216 4.542,3.324 8.305,3.324 1.266,0 3.269,-0.23 6.01,-0.686 v 11.073 z" /></g><g
           transform="translate(376.0291,567.2868)"
           id="g52"><path
             id="path54"
             style="fill:#f11420;fill-opacity:1;fill-rule:nonzero;stroke:none"
             d="m 0,0 h 5.64 l 4.168,-21.462 h 1.053 l 5.011,20.935 h 5.905 l 5.01,-20.935 h 1.054 L 31.954,0 h 5.694 L 32.06,-26.366 H 22.937 L 18.824,-8.278 14.711,-26.366 H 5.588 Z" /></g><g
           transform="translate(426.2802,552.6278)"
           id="g56"><path
             id="path58"
             style="fill:#f11420;fill-opacity:1;fill-rule:nonzero;stroke:none"
             d="m 0,0 c -2.426,-0.21 -3.639,-1.53 -3.639,-3.955 0,-2.426 1.071,-3.639 3.217,-3.639 1.757,0 3.619,0.282 5.588,0.844 l 0.951,0.317 V 0.579 Z M 11.812,6.538 V -5.483 c 0.035,-0.774 0.237,-1.345 0.606,-1.714 0.369,-0.37 0.939,-0.607 1.712,-0.712 l -0.157,-4.377 c -3.024,0 -5.361,0.649 -7.013,1.952 -2.812,-1.303 -5.642,-1.952 -8.49,-1.952 -5.238,0 -7.858,2.795 -7.858,8.383 0,2.673 0.714,4.607 2.136,5.802 1.425,1.193 3.613,1.914 6.566,2.161 l 6.803,0.579 v 1.899 c 0,1.406 -0.309,2.391 -0.924,2.953 -0.616,0.564 -1.521,0.845 -2.715,0.845 -2.251,0 -5.063,-0.142 -8.437,-0.423 l -1.687,-0.105 -0.212,4.06 c 3.831,0.913 7.357,1.372 10.573,1.372 3.217,0 5.536,-0.696 6.96,-2.083 1.423,-1.39 2.137,-3.596 2.137,-6.619" /></g><g
           transform="translate(445.3163,540.9212)"
           id="g60"><path
             id="path62"
             style="fill:#f11420;fill-opacity:1;fill-rule:nonzero;stroke:none"
             d="m 0,0 v 26.366 h 5.695 v -3.165 c 2.987,1.934 5.975,3.182 8.964,3.746 v -5.75 C 11.635,20.601 9.052,19.827 6.908,18.879 L 5.747,18.404 V 0 Z" /></g><g
           transform="translate(479.748,556.1089)"
           id="g64"><path
             id="path66"
             style="fill:#f11420;fill-opacity:1;fill-rule:nonzero;stroke:none"
             d="M 0,0 C 0,2.601 -0.414,4.42 -1.238,5.458 -2.066,6.494 -3.464,7.013 -5.431,7.013 -7.399,7.013 -8.832,6.466 -9.728,5.378 -10.626,4.288 -11.092,2.496 -11.125,0 Z m 3.164,-10.441 1.477,0.157 0.105,-4.27 c -4.007,-0.809 -7.558,-1.213 -10.651,-1.213 -3.903,0 -6.707,1.071 -8.412,3.217 -1.704,2.144 -2.558,5.57 -2.558,10.282 0,9.351 3.816,14.027 11.444,14.027 7.382,0 11.073,-4.027 11.073,-12.076 L 5.273,-4.43 h -16.346 c 0.035,-2.18 0.509,-3.78 1.423,-4.798 0.913,-1.021 2.618,-1.53 5.115,-1.53 2.496,0 5.062,0.105 7.699,0.317" /></g><g
           transform="translate(182.3386,603.8254)"
           id="g68"><path
             id="path70"
             style="fill:#f11420;fill-opacity:1;fill-rule:nonzero;stroke:none"
             d="M 0,0 H -6.964 C -7.053,-4.777 -8,-8.587 -9.804,-11.427 c -1.802,-2.839 -4.733,-5.16 -8.789,-6.964 l -3.11,7.234 c 1.802,0.811 3.178,1.691 4.125,2.638 0.946,0.947 1.611,2.152 1.994,3.617 0.383,1.466 0.575,3.413 0.575,5.849 v 30.83 h 8.045 V 9.059 l 6.964,0 z" /></g><g
           transform="translate(193.7984,590.6398)"
           id="g72"><path
             id="path74"
             style="fill:#f11420;fill-opacity:1;fill-rule:nonzero;stroke:none"
             d="m 0,0 c -0.742,0.542 -1.386,1.184 -1.926,1.928 -0.542,0.744 -0.813,1.409 -0.813,1.994 0,0.902 0.564,1.905 1.691,3.009 C 0.078,8.037 1.092,8.61 1.994,8.655 2.896,8.61 3.899,8.037 5.003,6.931 6.107,5.827 6.661,4.824 6.661,3.922 6.661,3.382 6.389,2.729 5.848,1.961 5.308,1.195 4.665,0.542 3.922,0 3.178,-0.54 2.536,-0.811 1.994,-0.811 1.409,-0.811 0.744,-0.54 0,0 m -11.291,0 c -0.744,0.542 -1.385,1.184 -1.928,1.928 -0.54,0.744 -0.81,1.409 -0.81,1.994 0,0.902 0.563,1.905 1.691,3.009 1.125,1.106 2.14,1.679 3.042,1.724 0.901,-0.045 1.904,-0.618 3.008,-1.724 1.104,-1.104 1.656,-2.107 1.656,-3.009 0,-0.54 -0.27,-1.193 -0.81,-1.961 C -5.983,1.195 -6.626,0.542 -7.37,0 c -0.743,-0.54 -1.386,-0.811 -1.926,-0.811 -0.587,0 -1.25,0.271 -1.995,0.811 m -2.806,22.245 h 10.48 V 44.962 H 4.43 V 13.186 h -18.527 z" /></g><g
           transform="translate(225.9483,612.8848)"
           id="g76"><path
             id="path78"
             style="fill:#f11420;fill-opacity:1;fill-rule:nonzero;stroke:none"
             d="m 0,0 c 1.083,0 1.837,0.214 2.264,0.643 0.43,0.428 0.644,1.205 0.644,2.333 V 14.469 H -7.979 c -1.351,0 -2.276,-0.214 -2.771,-0.642 -0.496,-0.429 -0.745,-1.252 -0.745,-2.468 V 0 Z m 4.124,22.988 c 2.3,-0.362 4.599,-0.97 6.896,-1.826 V 0 c 0,-4.597 -1.374,-9.454 -4.124,-14.57 -2.75,-5.115 -6.288,-9.477 -10.614,-13.082 l -5.273,6.083 c 2.027,1.67 3.887,3.584 5.576,5.748 1.691,2.163 3.053,4.418 4.091,6.762 h -8.383 c -3.067,0 -5.477,0.528 -7.236,1.588 -1.757,1.059 -3.042,2.783 -3.852,5.172 -0.813,2.388 -1.219,5.656 -1.219,9.803 0,4.102 0.508,7.303 1.522,9.602 1.015,2.299 2.659,3.944 4.937,4.935 2.274,0.991 5.419,1.489 9.431,1.489 3.201,0 5.949,-0.181 8.248,-0.542" /></g><g
           transform="translate(241.3634,612.8848)"
           id="g80"><path
             id="path82"
             style="fill:#f11420;fill-opacity:1;fill-rule:nonzero;stroke:none"
             d="m 0,0 h 21.23 c -1.082,4.282 -2.085,7.471 -3.008,9.567 -0.925,2.097 -2.008,3.539 -3.246,4.328 -1.24,0.787 -2.941,1.182 -5.106,1.182 -2.119,0 -4.303,-0.27 -6.558,-0.811 l -2.231,8.858 c 2.614,0.676 5.545,1.014 8.789,1.014 4.282,0 7.539,-0.62 9.771,-1.86 2.231,-1.24 4.157,-3.629 5.78,-7.166 1.623,-3.54 3.448,-9.252 5.477,-17.139 V -9.059 L 0,-9.059 Z" /></g><g
           transform="translate(274.4929,592.6689)"
           id="g84"><path
             id="path86"
             style="fill:#f11420;fill-opacity:1;fill-rule:nonzero;stroke:none"
             d="m 0,0 c 1.802,0.811 3.178,1.691 4.124,2.638 0.947,0.946 1.612,2.151 1.995,3.617 0.382,1.465 0.575,3.413 0.575,5.848 v 30.83 h 8.045 V 12.103 C 14.739,7.009 13.848,2.976 12.068,0 10.288,-2.976 7.302,-5.386 3.11,-7.234 Z" /></g><g
           transform="translate(298.0208,646.4205)"
           id="g88"><path
             id="path90"
             style="fill:#f11420;fill-opacity:1;fill-rule:nonzero;stroke:none"
             d="m 0,0 h 8.045 v -33.536 h 7.168 v -9.059 H 0 Z" /></g><g
           transform="translate(324.5924,612.8848)"
           id="g92"><path
             id="path94"
             style="fill:#f11420;fill-opacity:1;fill-rule:nonzero;stroke:none"
             d="M 0,0 H 11.223 V 7.234 H 2.84 C 1.846,7.234 1.125,7.053 0.676,6.694 0.225,6.332 0,5.747 0,4.935 Z M 34.887,-2.027 V -9.059 H -14.064 V 0 h 7.032 c 0.089,4.101 0.474,7.11 1.149,9.026 0.676,1.915 1.86,3.188 3.551,3.82 1.689,0.631 4.293,0.946 7.807,0.946 3.652,0 6.333,-0.315 8.047,-0.946 1.712,-0.632 2.917,-1.894 3.617,-3.787 C 17.837,7.166 18.231,4.146 18.323,0 h 7.774 l -2.703,10.75 c -0.677,2.57 -1.736,4.609 -3.178,6.119 -1.444,1.51 -3.471,2.614 -6.086,3.314 -2.614,0.698 -6.041,1.047 -10.276,1.047 l 0.473,8.79 c 5.634,0 10.186,-0.496 13.658,-1.487 3.469,-0.993 6.231,-2.649 8.281,-4.97 2.051,-2.323 3.594,-5.534 4.632,-9.635 z" /></g><g
           transform="translate(396.7542,589.423)"
           id="g96"><path
             id="path98"
             style="fill:#f11420;fill-opacity:1;fill-rule:nonzero;stroke:none"
             d="m 0,0 c -0.744,0.542 -1.386,1.184 -1.928,1.928 -0.54,0.743 -0.811,1.409 -0.811,1.994 0,0.902 0.564,1.905 1.691,3.009 C 0.078,8.035 1.092,8.61 1.994,8.655 2.896,8.61 3.897,8.035 5.003,6.931 6.107,5.827 6.659,4.824 6.659,3.922 6.659,3.382 6.389,2.729 5.848,1.961 5.306,1.195 4.665,0.542 3.92,0 3.178,-0.54 2.535,-0.81 1.994,-0.81 1.407,-0.81 0.742,-0.54 0,0 m -21.806,17.782 c -1.667,2.253 -2.501,5.95 -2.501,11.089 0,4.597 0.676,8.879 2.029,12.846 l 7.706,-1.285 c -1.127,-3.472 -1.689,-6.581 -1.689,-9.33 0,-3.201 0.339,-5.747 1.013,-7.64 h 34.144 v 22.717 h 8.047 V 14.402 h -40.5 c -3.831,0 -6.581,1.126 -8.249,3.38" /></g><g
           transform="translate(450.0647,603.8254)"
           id="g100"><path
             id="path102"
             style="fill:#f11420;fill-opacity:1;fill-rule:nonzero;stroke:none"
             d="m 0,0 h -6.964 c -0.09,-4.777 -1.036,-8.587 -2.84,-11.427 -1.802,-2.839 -4.733,-5.16 -8.789,-6.964 l -3.11,7.234 c 1.802,0.811 3.178,1.691 4.125,2.638 0.946,0.947 1.611,2.152 1.994,3.617 0.383,1.466 0.575,3.413 0.575,5.849 v 30.83 h 8.045 V 9.059 l 6.964,0 z" /></g><g
           transform="translate(485.7636,612.8848)"
           id="g104"><path
             id="path106"
             style="fill:#f11420;fill-opacity:1;fill-rule:nonzero;stroke:none"
             d="M 0,0 V -9.059 H -38.337 V 0 h 9.4 c -0.406,2.029 -0.61,4.484 -0.61,7.37 0,4.193 0.418,7.425 1.251,9.703 0.834,2.274 2.241,3.909 4.226,4.902 1.982,0.989 4.801,1.487 8.451,1.487 4.282,0 8.474,-0.609 12.577,-1.825 L -4.327,13.05 c -3.877,0.855 -7.348,1.284 -10.412,1.284 -2.797,0 -4.981,-0.159 -6.559,-0.474 V 3.988 C -21.343,2.546 -20.96,1.522 -20.148,0.914 -19.337,0.305 -18.053,0 -16.294,0 Z" /></g><g
           transform="translate(408.1359,736.1222)"
           id="g108"><path
             id="path110"
             style="fill:#f11420;fill-opacity:1;fill-rule:nonzero;stroke:none"
             d="m 0,0 h -41.995 v 83.991 h -41.996 v 41.995 h 41.996 v 41.996 H 0 Z m -125.986,83.991 h -41.996 v 83.991 h 41.996 v 41.996 h 83.99 v -41.996 h -83.99 z m 0,-83.991 h -41.996 v 41.995 h 41.996 z m 150.91,268.912 h -217.829 c -30.381,0 -55.009,-24.628 -55.009,-55.009 V -3.926 c 0,-30.38 24.628,-55.009 55.009,-55.009 H 24.924 c 30.38,0 55.008,24.629 55.008,55.009 v 217.829 c 0,30.381 -24.628,55.009 -55.008,55.009" /></g><g
           transform="translate(674.6061,133.2462)"
           id="g112"><path
             id="path114"
             style="fill:#f11420;fill-opacity:1;fill-rule:nonzero;stroke:none"
             d="m 0,0 h 170.333 c 23.756,0 43.014,19.258 43.014,43.014 v 170.333 c 0,23.756 -19.258,43.014 -43.014,43.014 H 0 c -23.756,0 -43.014,-19.258 -43.014,-43.014 V 43.014 C -43.014,19.258 -23.756,0 0,0" /></g><path
           id="path116"
           style="fill:#ffffff;fill-opacity:1;fill-rule:nonzero;stroke:none"
           d="m 792.611,310.685 h -65.677 v 32.839 h 65.677 z" /><g
           transform="translate(792.611,310.6849)"
           id="g118"><path
             id="path120"
             style="fill:#ffffff;fill-opacity:1;fill-rule:nonzero;stroke:none"
             d="M 0,0 V -32.839 H -32.839 V -65.677 H 0 v -65.678 H 32.839 V 0 Z" /></g><path
           id="path122"
           style="fill:#ffffff;fill-opacity:1;fill-rule:nonzero;stroke:none"
           d="m 726.934,245.008 h -32.839 v 65.677 h 32.839 z" /><path
           id="path124"
           style="fill:#ffffff;fill-opacity:1;fill-rule:nonzero;stroke:none"
           d="m 726.934,179.33 h -32.839 v 32.839 h 32.839 z" /><g
           transform="translate(218.477,158.3165)"
           id="g126"><path
             id="path128"
             style="fill:#f11420;fill-opacity:1;fill-rule:nonzero;stroke:none"
             d="m 0,0 h -8.48 c -0.111,-5.817 -1.264,-10.459 -3.458,-13.918 -2.2,-3.459 -5.765,-6.285 -10.705,-8.48 l -3.787,8.811 c 2.194,0.989 3.868,2.058 5.021,3.211 1.153,1.153 1.962,2.622 2.427,4.407 0.47,1.782 0.703,4.156 0.703,7.122 V 38.705 H -8.48 V 11.036 H 0 Z" /></g><g
           transform="translate(232.4328,142.2597)"
           id="g130"><path
             id="path132"
             style="fill:#f11420;fill-opacity:1;fill-rule:nonzero;stroke:none"
             d="m 0,0 c -0.905,0.657 -1.689,1.441 -2.346,2.346 -0.663,0.905 -0.991,1.717 -0.991,2.43 0,1.097 0.687,2.318 2.058,3.663 C 0.096,9.784 1.33,10.485 2.427,10.54 3.524,10.485 4.748,9.784 6.093,8.439 7.438,7.094 8.111,5.873 8.111,4.776 8.111,4.116 7.782,3.322 7.125,2.387 6.462,1.454 5.683,0.657 4.773,0 3.868,-0.66 3.089,-0.989 2.427,-0.989 1.714,-0.989 0.905,-0.66 0,0 m -13.754,0 c -0.905,0.657 -1.688,1.441 -2.346,2.346 -0.657,0.905 -0.986,1.717 -0.986,2.43 0,1.097 0.683,2.318 2.058,3.663 1.371,1.345 2.604,2.046 3.707,2.101 1.097,-0.055 2.315,-0.756 3.66,-2.101 1.345,-1.345 2.018,-2.566 2.018,-3.663 0,-0.66 -0.329,-1.454 -0.986,-2.389 C -7.286,1.454 -8.07,0.657 -8.975,0 c -0.905,-0.66 -1.689,-0.989 -2.346,-0.989 -0.718,0 -1.527,0.329 -2.433,0.989 m -3.418,27.092 H -4.404 V 54.761 H 5.395 V 16.057 h -22.567 z" /></g><g
           transform="translate(271.59,169.3522)"
           id="g134"><path
             id="path136"
             style="fill:#f11420;fill-opacity:1;fill-rule:nonzero;stroke:none"
             d="M 0,0 C 1.32,0 2.235,0.258 2.761,0.781 3.282,1.302 3.54,2.25 3.54,3.623 V 17.622 H -9.719 c -1.643,0 -2.77,-0.261 -3.372,-0.784 -0.607,-0.521 -0.91,-1.522 -0.91,-3.004 l 0,-13.834 z m 5.021,27.998 c 2.801,-0.44 5.603,-1.181 8.404,-2.225 V 0 c 0,-5.6 -1.679,-11.516 -5.026,-17.748 -3.348,-6.23 -7.656,-11.542 -12.93,-15.933 l -6.421,7.41 c 2.472,2.033 4.733,4.366 6.796,7.001 2.058,2.634 3.716,5.38 4.98,8.234 H -9.39 c -3.731,0 -6.669,0.645 -8.808,1.934 -2.144,1.29 -3.707,3.391 -4.693,6.301 -0.991,2.91 -1.486,6.889 -1.486,11.941 0,4.995 0.622,8.894 1.856,11.693 1.233,2.801 3.236,4.803 6.012,6.012 2.771,1.206 6.598,1.81 11.488,1.81 3.893,0 7.246,-0.22 10.042,-0.657" /></g><g
           transform="translate(290.3646,169.3522)"
           id="g138"><path
             id="path140"
             style="fill:#f11420;fill-opacity:1;fill-rule:nonzero;stroke:none"
             d="m 0,0 h 25.854 c -1.315,5.213 -2.539,9.099 -3.661,11.65 -1.128,2.554 -2.448,4.311 -3.954,5.271 -1.512,0.961 -3.58,1.442 -6.22,1.442 -2.579,0 -5.243,-0.329 -7.984,-0.989 l -2.72,10.788 c 3.185,0.824 6.755,1.236 10.704,1.236 5.218,0 9.183,-0.756 11.903,-2.265 2.715,-1.512 5.062,-4.419 7.039,-8.73 1.977,-4.311 4.202,-11.268 6.669,-20.876 v -8.563 H 0 Z" /></g><g
           transform="translate(330.7151,144.7298)"
           id="g142"><path
             id="path144"
             style="fill:#f11420;fill-opacity:1;fill-rule:nonzero;stroke:none"
             d="M 0,0 C 2.194,0.989 3.868,2.058 5.021,3.211 6.174,4.364 6.983,5.833 7.448,7.618 7.918,9.4 8.151,11.774 8.151,14.74 V 52.291 H 17.95 V 14.74 C 17.95,8.535 16.863,3.623 14.699,0 12.53,-3.623 8.889,-6.561 3.787,-8.811 Z" /></g><g
           transform="translate(359.3701,210.1957)"
           id="g146"><path
             id="path148"
             style="fill:#f11420;fill-opacity:1;fill-rule:nonzero;stroke:none"
             d="m 0,0 h 9.799 v -40.844 h 8.733 v -11.035 l -18.532,0 z" /></g><g
           transform="translate(391.7314,169.3522)"
           id="g150"><path
             id="path152"
             style="fill:#f11420;fill-opacity:1;fill-rule:nonzero;stroke:none"
             d="M 0,0 H 13.668 V 8.811 H 3.459 C 2.25,8.811 1.37,8.591 0.824,8.151 0.273,7.711 0,6.998 0,6.01 Z m 42.489,-2.473 v -8.563 h -59.62 V 0 h 8.565 c 0.112,4.993 0.577,8.659 1.401,10.993 0.824,2.333 2.265,3.883 4.323,4.652 2.058,0.768 5.229,1.153 9.511,1.153 4.445,0 7.712,-0.385 9.8,-1.153 2.083,-0.769 3.555,-2.306 4.404,-4.612 C 21.723,8.727 22.203,5.049 22.314,0 h 9.471 l -3.292,13.091 c -0.824,3.13 -2.119,5.613 -3.873,7.453 -1.755,1.838 -4.227,3.183 -7.413,4.035 -3.18,0.852 -7.357,1.277 -12.515,1.277 l 0.577,10.705 c 6.861,0 12.408,-0.605 16.636,-1.81 4.227,-1.209 7.589,-3.227 10.087,-6.053 2.498,-2.829 4.374,-6.74 5.638,-11.736 z" /></g><g
           transform="translate(490.3474,140.7756)"
           id="g154"><path
             id="path156"
             style="fill:#f11420;fill-opacity:1;fill-rule:nonzero;stroke:none"
             d="m 0,0 c -0.905,0.66 -1.689,1.441 -2.346,2.349 -0.663,0.905 -0.991,1.714 -0.991,2.427 0,1.1 0.687,2.321 2.058,3.666 C 0.096,9.787 1.33,10.487 2.427,10.54 3.524,10.487 4.748,9.787 6.093,8.442 7.438,7.097 8.111,5.876 8.111,4.776 8.111,4.118 7.782,3.322 7.125,2.389 6.462,1.456 5.683,0.66 4.773,0 3.868,-0.657 3.09,-0.989 2.427,-0.989 1.714,-0.989 0.905,-0.657 0,0 m -26.556,21.659 c -2.033,2.743 -3.05,7.246 -3.05,13.504 0,5.6 0.825,10.815 2.473,15.647 l 9.385,-1.565 c -1.37,-4.227 -2.058,-8.017 -2.058,-11.365 0,-3.898 0.414,-6.998 1.234,-9.303 h 41.589 v 27.668 h 9.799 V 17.541 h -49.325 c -4.667,0 -8.02,1.373 -10.047,4.118" /></g><g
           transform="translate(555.2723,158.3165)"
           id="g158"><path
             id="path160"
             style="fill:#f11420;fill-opacity:1;fill-rule:nonzero;stroke:none"
             d="m 0,0 h -8.48 c -0.111,-5.817 -1.264,-10.459 -3.458,-13.918 -2.2,-3.459 -5.765,-6.285 -10.705,-8.48 l -3.787,8.811 c 2.194,0.989 3.868,2.058 5.021,3.211 1.153,1.153 1.962,2.622 2.427,4.407 0.47,1.782 0.703,4.156 0.703,7.122 V 38.705 H -8.48 V 11.036 H 0 Z" /></g><g
           transform="translate(598.7528,169.3522)"
           id="g162"><path
             id="path164"
             style="fill:#f11420;fill-opacity:1;fill-rule:nonzero;stroke:none"
             d="M 0,0 V -11.036 H -46.691 V 0 h 11.448 c -0.496,2.47 -0.744,5.461 -0.744,8.975 0,5.105 0.511,9.044 1.527,11.817 1.012,2.771 2.731,4.761 5.148,5.969 2.412,1.209 5.845,1.813 10.29,1.813 5.218,0 10.32,-0.741 15.316,-2.225 L -5.269,15.892 c -4.723,1.042 -8.95,1.565 -12.681,1.565 -3.403,0 -6.068,-0.194 -7.99,-0.576 V 4.857 C -25.995,3.1 -25.525,1.851 -24.539,1.11 -23.548,0.369 -21.985,0 -19.847,0 Z" /></g><g
           transform="translate(431.6493,372.5889)"
           id="g166"><path
             id="path168"
             style="fill:#f11420;fill-opacity:1;fill-rule:nonzero;stroke:none"
             d="M 0,0 -8.433,-34.412 H 13.289 L 4.958,0 Z M -25.289,-58.711 -8.53,9.224 H 13.386 L 30.247,-58.711 H 19.138 l -3.669,14.579 h -26.082 l -3.669,-14.579 z" /></g><g
           transform="translate(470.3242,313.8781)"
           id="g170"><path
             id="path172"
             style="fill:#f11420;fill-opacity:1;fill-rule:nonzero;stroke:none"
             d="m 0,0 v 49.587 h 10.71 v -5.951 c 5.619,3.636 11.242,5.984 16.861,7.041 V 39.867 C 21.886,38.741 17.025,37.288 12.992,35.505 l -2.18,-0.893 V 0 Z" /></g><g
           transform="translate(520.6047,335.8943)"
           id="g174"><path
             id="path176"
             style="fill:#f11420;fill-opacity:1;fill-rule:nonzero;stroke:none"
             d="m 0,0 c -4.564,-0.397 -6.847,-2.876 -6.847,-7.438 0,-4.562 2.016,-6.844 6.054,-6.844 3.306,0 6.806,0.53 10.51,1.589 l 1.786,0.594 V 1.09 Z m 22.213,12.299 v -22.612 c 0.067,-1.456 0.445,-2.531 1.141,-3.224 0.696,-0.694 1.766,-1.141 3.224,-1.338 l -0.297,-8.231 c -5.69,0 -10.085,1.22 -13.191,3.669 -5.292,-2.449 -10.613,-3.669 -15.966,-3.669 -9.855,0 -14.778,5.255 -14.778,15.768 0,5.023 1.341,8.661 4.017,10.91 2.676,2.246 6.79,3.602 12.348,4.065 l 12.792,1.09 v 3.572 c 0,2.643 -0.578,4.495 -1.734,5.552 -1.157,1.057 -2.861,1.586 -5.107,1.586 -4.232,0 -9.523,-0.263 -15.868,-0.793 l -3.173,-0.197 -0.399,7.635 c 7.205,1.719 13.836,2.579 19.885,2.579 6.048,0 10.413,-1.305 13.089,-3.917 2.677,-2.613 4.017,-6.76 4.017,-12.445" /></g><g
           transform="translate(574.5541,322.4082)"
           id="g178"><path
             id="path180"
             style="fill:#f11420;fill-opacity:1;fill-rule:nonzero;stroke:none"
             d="m 0,0 c 5.286,0 8.806,1.238 10.562,3.718 1.75,2.479 2.625,6.693 2.625,12.644 0,5.951 -0.742,10.132 -2.231,12.547 -1.484,2.413 -3.915,3.618 -7.287,3.618 -3.173,0 -6.345,-0.494 -9.523,-1.487 L -7.44,30.544 V 0.397 C -3.802,0.13 -1.325,0 0,0 m 4.958,42.147 c 6.806,0 11.719,-1.901 14.727,-5.703 3.009,-3.802 4.514,-10.529 4.514,-20.182 0,-9.653 -1.786,-16.38 -5.358,-20.182 -3.572,-3.802 -9.85,-5.7 -18.841,-5.7 -3.111,0 -8.034,0.297 -14.778,0.89 l -3.372,0.3 V 61.684 H -7.44 V 39.171 c 4.564,1.986 8.694,2.976 12.398,2.976" /></g><g
           transform="translate(232.4105,228.0523)"
           id="g182"><path
             id="path184"
             style="fill:#f11420;fill-opacity:1;fill-rule:nonzero;stroke:none"
             d="M 0,0 V 29.354 H -29.357 V 0 h -11.007 v 67.934 h 11.007 V 38.974 H 0 v 28.96 H 11.109 V 0 Z" /></g><g
           transform="translate(272.2776,250.0685)"
           id="g186"><path
             id="path188"
             style="fill:#f11420;fill-opacity:1;fill-rule:nonzero;stroke:none"
             d="m 0,0 c -4.564,-0.397 -6.847,-2.876 -6.847,-7.438 0,-4.562 2.016,-6.844 6.054,-6.844 3.306,0 6.806,0.53 10.51,1.589 l 1.786,0.594 V 1.09 Z m 22.213,12.299 v -22.612 c 0.067,-1.456 0.445,-2.531 1.141,-3.224 0.696,-0.694 1.766,-1.141 3.224,-1.338 l -0.297,-8.231 c -5.69,0 -10.085,1.22 -13.191,3.669 -5.292,-2.449 -10.613,-3.669 -15.966,-3.669 -9.855,0 -14.778,5.255 -14.778,15.768 0,5.023 1.341,8.661 4.017,10.91 2.676,2.246 6.79,3.602 12.348,4.065 l 12.792,1.09 v 3.572 c 0,2.643 -0.578,4.495 -1.734,5.552 -1.157,1.057 -2.861,1.586 -5.107,1.586 -4.232,0 -9.523,-0.263 -15.868,-0.793 l -3.173,-0.197 -0.399,7.635 c 7.205,1.719 13.836,2.579 19.885,2.579 6.048,0 10.413,-1.305 13.089,-3.917 2.677,-2.613 4.017,-6.76 4.017,-12.445" /></g><g
           transform="translate(308.0768,228.0523)"
           id="g190"><path
             id="path192"
             style="fill:#f11420;fill-opacity:1;fill-rule:nonzero;stroke:none"
             d="m 0,0 v 49.587 h 10.71 v -5.951 c 5.619,3.636 11.242,5.984 16.861,7.041 V 39.867 C 21.886,38.741 17.025,37.288 12.992,35.505 l -2.18,-0.893 V 0 Z" /></g><g
           transform="translate(371.3495,238.3657)"
           id="g194"><path
             id="path196"
             style="fill:#f11420;fill-opacity:1;fill-rule:nonzero;stroke:none"
             d="M 0,0 1.684,0.696 V 30.05 c -3.966,0.66 -7.635,0.993 -11.007,0.993 -6.678,0 -10.02,-5.555 -10.02,-16.661 0,-6.085 0.778,-10.299 2.334,-12.645 1.55,-2.348 4.017,-3.52 7.389,-3.52 3.372,0 6.575,0.593 9.62,1.783 M 12.496,59.901 V -10.313 H 1.781 v 2.579 c -4.826,-2.449 -9.257,-3.669 -13.289,-3.669 -6.479,0 -11.222,1.949 -14.231,5.851 -3.009,3.899 -4.513,10.444 -4.513,19.634 0,9.191 1.673,15.868 5.009,20.034 3.337,4.165 8.546,6.248 15.623,6.248 2.379,0 6.145,-0.43 11.304,-1.29 v 20.827 z" /></g><g
           transform="translate(393.0664,277.6394)"
           id="g198"><path
             id="path200"
             style="fill:#f11420;fill-opacity:1;fill-rule:nonzero;stroke:none"
             d="m 0,0 h 10.613 l 7.834,-40.364 h 1.986 l 9.42,39.371 h 11.109 l 9.421,-39.371 h 1.98 L 60.1,0 H 70.81 L 60.3,-49.587 H 43.142 l -7.737,34.016 -7.732,-34.016 H 10.516 Z" /></g><g
           transform="translate(487.579,250.0685)"
           id="g202"><path
             id="path204"
             style="fill:#f11420;fill-opacity:1;fill-rule:nonzero;stroke:none"
             d="m 0,0 c -4.564,-0.397 -6.847,-2.876 -6.847,-7.438 0,-4.562 2.016,-6.844 6.054,-6.844 3.305,0 6.806,0.53 10.51,1.589 l 1.786,0.594 V 1.09 Z m 22.213,12.299 v -22.612 c 0.067,-1.456 0.445,-2.531 1.141,-3.224 0.696,-0.694 1.766,-1.141 3.224,-1.338 l -0.297,-8.231 c -5.69,0 -10.085,1.22 -13.192,3.669 -5.291,-2.449 -10.612,-3.669 -15.965,-3.669 -9.855,0 -14.778,5.255 -14.778,15.768 0,5.023 1.341,8.661 4.017,10.91 2.676,2.246 6.79,3.602 12.347,4.065 l 12.793,1.09 v 3.572 c 0,2.643 -0.578,4.495 -1.735,5.552 -1.156,1.057 -2.86,1.586 -5.106,1.586 -4.232,0 -9.523,-0.263 -15.868,-0.793 l -3.173,-0.197 -0.399,7.635 c 7.205,1.719 13.836,2.579 19.885,2.579 6.048,0 10.413,-1.305 13.089,-3.917 2.677,-2.613 4.017,-6.76 4.017,-12.445" /></g><g
           transform="translate(523.3781,228.0523)"
           id="g206"><path
             id="path208"
             style="fill:#f11420;fill-opacity:1;fill-rule:nonzero;stroke:none"
             d="m 0,0 v 49.587 h 10.71 v -5.951 c 5.619,3.636 11.242,5.984 16.861,7.041 V 39.867 C 21.886,38.741 17.025,37.288 12.992,35.505 l -2.18,-0.893 V 0 Z" /></g><g
           transform="translate(588.14,256.6133)"
           id="g210"><path
             id="path212"
             style="fill:#f11420;fill-opacity:1;fill-rule:nonzero;stroke:none"
             d="m 0,0 c 0,4.892 -0.778,8.315 -2.333,10.265 -1.551,1.95 -4.181,2.927 -7.881,2.927 -3.704,0 -6.396,-1.026 -8.085,-3.076 C -19.982,8.067 -20.862,4.695 -20.924,0 Z m 5.951,-19.634 2.774,0.297 0.199,-8.034 c -7.537,-1.52 -14.215,-2.28 -20.033,-2.28 -7.338,0 -12.609,2.016 -15.817,6.048 -3.209,4.033 -4.81,10.48 -4.81,19.34 0,17.585 7.174,26.379 21.522,26.379 13.883,0 20.827,-7.571 20.827,-22.71 L 9.917,-8.331 h -30.744 c 0.067,-4.098 0.957,-7.107 2.677,-9.024 1.719,-1.918 4.927,-2.875 9.62,-2.875 4.692,0 9.523,0.199 14.481,0.596" /></g><g
           transform="translate(695.7778,677.1876)"
           id="g214"><path
             id="path216"
             style="fill:#f11420;fill-opacity:1;fill-rule:nonzero;stroke:none"
             d="m 0,0 h 217.829 c 30.381,0 55.009,24.628 55.009,55.009 v 217.829 c 0,30.38 -24.628,55.009 -55.009,55.009 L 0,327.847 c -30.38,0 -55.009,-24.629 -55.009,-55.009 V 55.009 C -55.009,24.628 -30.38,0 0,0" /></g><path
           id="path218"
           style="fill:#ffffff;fill-opacity:1;fill-rule:nonzero;stroke:none"
           d="M 846.687,904.104 H 762.696 V 946.1 h 83.991 z" /><g
           transform="translate(846.6878,904.1044)"
           id="g220"><path
             id="path222"
             style="fill:#ffffff;fill-opacity:1;fill-rule:nonzero;stroke:none"
             d="M 0,0 V -41.996 H -41.995 V -83.991 H 0 v -83.991 H 41.995 V 0 Z" /></g><path
           id="path224"
           style="fill:#ffffff;fill-opacity:1;fill-rule:nonzero;stroke:none"
           d="m 762.697,820.113 h -41.995 v 83.991 h 41.995 z" /><path
           id="path226"
           style="fill:#ffffff;fill-opacity:1;fill-rule:nonzero;stroke:none"
           d="m 762.697,736.122 h -41.995 v 41.996 h 41.995 z" /></g></g></g></svg>